<svg width="80" height="80" viewBox="0 0 80 80" fill="none" xmlns="http://www.w3.org/2000/svg">
<g clip-path="url(#clip0_2330_920)">
<path d="M71.7202 8.67794C71.5567 8.6713 71.3931 8.67019 71.2294 8.6748H65.0607V3.37354C65.0609 1.25304 63.0367 0 60.9162 0H55.2295C53.109 0 51.5669 1.25304 51.5669 3.37354V8.67462H28.4343V3.37354C28.4343 1.25304 26.8922 0 24.7717 0H19.0849C16.9646 0 14.9404 1.25304 14.9404 3.37354V8.67462H8.77182C4.83412 8.56485 1.553 11.6681 1.44323 15.6056C1.43862 15.7691 1.43973 15.9329 1.44637 16.0964V71.8071C1.44637 76.0481 4.53063 79.9998 8.77164 79.9998H71.2296C75.4706 79.9998 78.5549 76.0481 78.5549 71.8071V16.0964C78.7161 12.1605 75.656 8.83918 71.7202 8.67794ZM55.2295 3.85543H61.2055V14.4578H55.2295V3.85543ZM19.0851 3.85543H24.5791V14.4578H19.0851V3.85543ZM74.6995 71.8071C74.6995 73.9276 73.3501 76.1444 71.2296 76.1444H8.77182C6.65132 76.1444 5.30198 73.9276 5.30198 71.8071V30.8434H74.6995V71.8071ZM74.6995 16.0964V26.988H5.30179V16.0964C5.13852 14.2939 6.46739 12.7003 8.26983 12.5371C8.43661 12.5219 8.60449 12.5197 8.77164 12.5302H14.9404V14.6507C14.9404 16.7712 16.9644 18.3134 19.0849 18.3134H24.7717C26.7406 18.3674 28.3803 16.815 28.4343 14.8461C28.4362 14.781 28.4362 14.7159 28.4343 14.6507V12.53H51.5669V14.6505C51.5129 16.6194 53.0653 18.2591 55.0342 18.3132C55.0993 18.315 55.1644 18.315 55.2295 18.3132H60.9164C63.0369 18.3132 65.0609 16.771 65.0609 14.6505V12.53H71.2296C73.0359 12.4162 74.5925 13.7883 74.7063 15.5946C74.7168 15.7617 74.7146 15.9296 74.6995 16.0964Z" fill="white"/>
<path d="M29.3023 57.1569L27.5674 66.7955C27.4987 67.2089 27.5666 67.6336 27.7609 68.005C28.2544 68.9483 29.4193 69.313 30.3625 68.8195L39.0372 64.2894L47.7118 68.8195L48.5792 69.0123C48.9975 69.0197 49.4057 68.8835 49.7358 68.6267C50.3119 68.2059 50.6084 67.5015 50.5069 66.7953L48.772 57.1567L55.8082 50.4098C56.3117 49.8658 56.4943 49.0983 56.2901 48.3858C56.0305 47.7272 55.4457 47.2522 54.7479 47.1328L45.1094 45.687L40.7721 36.9159C40.583 36.5255 40.2679 36.2102 39.8775 36.0213C38.9193 35.5573 37.7664 35.9578 37.3022 36.9159L32.9649 45.687L23.3264 47.1328C22.6286 47.252 22.0438 47.7272 21.7842 48.3858C21.58 49.0983 21.7628 49.8658 22.2661 50.4098L29.3023 57.1569ZM34.6035 49.3498C35.2089 49.2592 35.7217 48.8563 35.9529 48.2895L39.0372 42.1208L42.1214 48.2895C42.3528 48.8563 42.8655 49.2592 43.4708 49.3498L50.3141 50.3135L45.3985 55.0364C44.9406 55.4897 44.7258 56.1339 44.8201 56.7713L45.9767 63.6147L39.9044 60.3377L39.037 60.1449L38.1695 60.3377L32.0973 63.6147L33.2538 56.7713C33.3483 56.1339 33.1334 55.4897 32.6755 55.0364L27.7598 50.3135L34.6035 49.3498Z" fill="white"/>
</g>
<defs>
<clipPath id="clip0_2330_920">
<rect width="80" height="80" fill="white"/>
</clipPath>
</defs>
</svg>
