<svg width="80" height="80" viewBox="0 0 80 80" fill="none" xmlns="http://www.w3.org/2000/svg">
<g clip-path="url(#clip0_2330_909)">
<path d="M74.0901 12.727C68.367 12.727 63.711 8.07094 63.711 2.34812V0H16.2881V2.34812C16.2881 8.07125 11.632 12.727 5.90916 12.727H3.56104V28.3423C3.56104 39.5634 6.94119 50.3683 13.3365 59.5886C19.7318 68.8088 28.6673 75.7606 39.177 79.6922L39.9996 80L40.8224 79.6922C51.3323 75.7606 60.2678 68.8089 66.6628 59.5886C73.0581 50.3683 76.4382 39.5634 76.4382 28.3423V12.727H74.0901ZM71.7421 28.3423H71.742C71.742 38.6023 68.6512 48.4814 62.8037 56.9119C57.1242 65.1006 49.2526 71.3327 39.9995 74.9775C30.7465 71.3325 22.8748 65.1006 17.1953 56.9119C11.3479 48.4816 8.25729 38.6023 8.25729 28.3423V17.2408C14.6932 16.2298 19.7909 11.1322 20.8018 4.69625H59.1976C60.2084 11.1322 65.306 16.2298 71.7421 17.2408V28.3423Z" fill="white"/>
<path d="M50.4772 22.0605L34.9339 37.604L29.5213 32.1913L19.5591 42.1537L34.9339 57.5286L60.4394 32.0229L50.4772 22.0605ZM26.2006 42.154L29.5214 38.8332L34.9341 44.2459L50.4774 28.7024L53.7981 32.0232L34.9341 50.8873L26.2006 42.154Z" fill="white"/>
</g>
<defs>
<clipPath id="clip0_2330_909">
<rect width="80" height="80" fill="white"/>
</clipPath>
</defs>
</svg>
